<?xml version="1.0" encoding="UTF-8"?>
<svg width="97px" height="28px" viewBox="0 0 97 28" version="1.1" xmlns="http://www.w3.org/2000/svg" xmlns:xlink="http://www.w3.org/1999/xlink">
<defs>
<linearGradient x1="50%" y1="50%" x2="0%" y2="100%" id="linearGradient-1">
<stop stop-color="#78D9FF" offset="0%"/>
<stop stop-color="#00BDFE" offset="100%"/>
</linearGradient>
<linearGradient x1="100%" y1="0%" x2="0%" y2="0%" id="linearGradient-2">
<stop stop-color="#78D9FF" offset="0%"/>
<stop stop-color="#00BDFE" offset="100%"/>
</linearGradient>
<linearGradient x1="50%" y1="50%" x2="100%" y2="0%" id="linearGradient-3">
<stop stop-color="#9379FF" offset="0%"/>
<stop stop-color="#7959FF" offset="100%"/>
</linearGradient>
<linearGradient x1="0%" y1="100%" x2="100%" y2="100%" id="linearGradient-4">
<stop stop-color="#9379FF" offset="0%"/>
<stop stop-color="#7959FF" offset="100%"/>
</linearGradient>
</defs>
<g id="Contact-Us-Alt" stroke="none" stroke-width="1" fill="none" fill-rule="evenodd" transform="translate(-715.000000, -31.000000)">
<g id="Header">
<g id="Header-Menu" transform="translate(0.000000, 5.000000)">
<g id="Logo_color" transform="translate(710.000000, 20.000000)">
<path d="M52.024,27.288 C48.5999829,27.288 46.784001,25.8320146 46.576,22.92 L50.032,22.92 C50.0640002,23.3840023 50.2519983,23.7719984 50.596,24.084 C50.9400017,24.3960016 51.4479966,24.552 52.12,24.552 C52.7600032,24.552 53.2479983,24.448001 53.584,24.24 C53.9200017,24.031999 54.088,23.7520018 54.088,23.4 C54.088,23.0159981 53.8480024,22.7320009 53.368,22.548 C52.8879976,22.3639991 52.3080034,22.2160006 51.628,22.104 C50.9479966,21.9919994 50.2640034,21.840001 49.576,21.648 C48.8879966,21.455999 48.3040024,21.0800028 47.824,20.52 C47.3439976,19.9599972 47.104,19.2160046 47.104,18.288 C47.104,17.1199942 47.5679954,16.136004 48.496,15.336 C49.4240046,14.535996 50.6399925,14.136 52.144,14.136 C53.8560086,14.136 55.1279958,14.5679957 55.96,15.432 C56.7920042,16.2960043 57.2399997,17.2799945 57.304,18.384 L54.016,18.384 C53.9839998,17.9519978 53.8040016,17.5920014 53.476,17.304 C53.1479984,17.0159986 52.6960029,16.872 52.12,16.872 C51.5759973,16.872 51.1520015,16.9879988 50.848,17.22 C50.5439985,17.4520012 50.392,17.7439982 50.392,18.096 C50.392,18.4800019 50.6319976,18.7599991 51.112,18.936 C51.5920024,19.1120009 52.1719966,19.2519995 52.852,19.356 C53.5320034,19.4600005 54.2119966,19.607999 54.892,19.8 C55.5720034,19.992001 56.1519976,20.3759971 56.632,20.952 C57.1120024,21.5280029 57.352,22.2959952 57.352,23.256 C57.352,24.4240058 56.8760048,25.3879962 55.924,26.148 C54.9719952,26.9080038 53.6720082,27.288 52.024,27.288 Z M71.296,21.696 L62.176,21.696 C62.2880006,22.5600043 62.6079974,23.2199977 63.136,23.676 C63.6640026,24.1320023 64.3599957,24.36 65.224,24.36 C65.7680027,24.36 66.2599978,24.2440012 66.7,24.012 C67.1400022,23.7799988 67.455999,23.4400022 67.648,22.992 L71.08,22.992 C70.7119982,24.2720064 69.9880054,25.307996 68.908,26.1 C67.8279946,26.892004 66.5680072,27.288 65.128,27.288 C63.2719907,27.288 61.7520059,26.6720062 60.568,25.44 C59.3839941,24.2079938 58.792,22.6240097 58.792,20.688 C58.792,18.8159906 59.3839941,17.2560062 60.568,16.008 C61.7520059,14.7599938 63.2639908,14.136 65.104,14.136 C66.9440092,14.136 68.4439942,14.7559938 69.604,15.996 C70.7640058,17.2360062 71.344,18.7999906 71.344,20.688 L71.296,21.696 Z M65.08,16.872 C64.3119962,16.872 63.6800025,17.0839979 63.184,17.508 C62.6879975,17.9320021 62.3680007,18.5119963 62.224,19.248 L67.936,19.248 C67.8079994,18.5279964 67.4960025,17.9520022 67,17.52 C66.5039975,17.0879978 65.8640039,16.872 65.08,16.872 Z M77.056,15.768 C77.4080018,15.3039977 77.9079968,14.9160016 78.556,14.604 C79.2040032,14.2919984 79.9439958,14.136 80.776,14.136 C82.5520089,14.136 83.9599948,14.7599938 85,16.008 C86.0400052,17.2560062 86.56,18.8239906 86.56,20.712 C86.56,22.6000094 86.0400052,24.1679938 85,25.416 C83.9599948,26.6640062 82.5520089,27.288 80.776,27.288 C78.9519909,27.288 77.6240042,26.6800061 76.792,25.464 L76.792,27 L73.648,27 L73.648,9 L77.056,9 L77.056,15.768 Z M76.96,20.712 C76.96,21.7520052 77.2439972,22.6079966 77.812,23.28 C78.3800028,23.9520034 79.1279954,24.288 80.056,24.288 C80.9840046,24.288 81.7319972,23.9520034 82.3,23.28 C82.8680028,22.6079966 83.152,21.7520052 83.152,20.712 C83.152,19.6719948 82.8680028,18.8160034 82.3,18.144 C81.7319972,17.4719966 80.9840046,17.136 80.056,17.136 C79.1279954,17.136 78.3800028,17.4719966 77.812,18.144 C77.2439972,18.8160034 76.96,19.6719948 76.96,20.712 Z M94.696,27.288 C92.7279902,27.288 91.1360061,26.6520064 89.92,25.38 C88.7039939,24.1079936 88.096,22.5520092 88.096,20.712 C88.096,18.8719908 88.7039939,17.3160064 89.92,16.044 C91.1360061,14.7719936 92.7279902,14.136 94.696,14.136 C96.6640098,14.136 98.2559939,14.7719936 99.472,16.044 C100.688006,17.3160064 101.296,18.8719908 101.296,20.712 C101.296,22.5520092 100.688006,24.1079936 99.472,25.38 C98.2559939,26.6520064 96.6640098,27.288 94.696,27.288 Z M91.504,20.712 C91.504,21.8160055 91.803997,22.6879968 92.404,23.328 C93.004003,23.9680032 93.7679954,24.288 94.696,24.288 C95.6240046,24.288 96.387997,23.9680032 96.988,23.328 C97.588003,22.6879968 97.888,21.8160055 97.888,20.712 C97.888,19.6079945 97.588003,18.7360032 96.988,18.096 C96.387997,17.4559968 95.6240046,17.136 94.696,17.136 C93.7679954,17.136 93.004003,17.4559968 92.404,18.096 C91.803997,18.7360032 91.504,19.6079945 91.504,20.712 Z" id="sebo-copy-32" fill="#221E41"/>
<g id="Group-10-Copy">
<rect id="Rectangle-6" x="4" y="4" width="32" height="32"/>
<g id="Group-6-Copy-10" transform="translate(20.000000, 20.000000) rotate(-45.000000) translate(-20.000000, -20.000000) translate(8.000000, 4.000000)">
<path d="M8,0 L8,0 C16.836556,-1.623249e-15 24,7.163444 24,16 L8,16 L8,0 Z" id="Combined-Shape" fill="url(#linearGradient-1)"/>
<path d="M24,24 L24,24 C19.581722,24 16,20.418278 16,16 L24,16 L24,24 Z" id="Rectangle-3-Copy-2" fill="url(#linearGradient-2)"/>
<path d="M16,32 L16,32 C7.163444,32 1.77635684e-15,24.836556 0,16 L16,16 L16,32 Z" id="Combined-Shape" fill="url(#linearGradient-3)"/>
<path d="M2.22044605e-16,8 L-1.24753155e-15,8 C4.418278,8 8,11.581722 8,16 L2.22044605e-16,16 L2.22044605e-16,8 Z" id="Rectangle-3-Copy-3" fill="url(#linearGradient-4)"/>
</g>
</g>
</g>
</g>
</g>
</g>
</svg>